# xmcd CD database file
#
# Track frame offsets:
#	150
#	900
#	1650
#	2400
#	3150
#	3900
#	4650
#	5400
#	6150
#	6900
#	7650
#	8400
#	9150
#	234900
#
# Disc length: 4440 seconds
#
# Revision: 5
# Processed by: cddbd v1.5.1PL0 Copyright (c) Steve Scherf et al.
# Submitted via: CDex 1.40PlusFr
#
DISCID=5611560e
DTITLE=TLC - 3D
DYEAR=1900
DGENRE=
TTITLE0=Data Track
TTITLE1=Data Track
TTITLE2=Data Track
TTITLE3=Data Track
TTITLE4=Data Track
TTITLE5=Data Track
TTITLE6=Data Track
TTITLE7=Data Track
TTITLE8=Data Track
TTITLE9=Data Track
TTITLE10=Data Track
TTITLE11=Data Track
TTITLE12=Data Track
TTITLE13=Data Track
EXTD=
EXTT0=
EXTT1=
EXTT2=
EXTT3=
EXTT4=
EXTT5=
EXTT6=
EXTT7=
EXTT8=
EXTT9=
EXTT10=
EXTT11=
EXTT12=
EXTT13=
PLAYORDER=
